<svg viewBox="0 0 1920 1080" fill="none" xmlns="http://www.w3.org/2000/svg" xmlns:anim="http://www.w3.org/2000/anim" anim="" anim:transform-origin="50% 50%" anim:duration="0.5" anim:ease="power1.inOut">
  <g id="5f649e24afcd658ccf64513a5ce71950">
    <rect width="1920" height="1080" fill="white"></rect>
    <line id="ed946fdeb53f121177743c63a8a56e5c" x1="209.074" y1="867.783" x2="1805.94" y2="867.783" stroke="#D9D9D9" stroke-width="2"></line>
    <line id="20b25ab9b897a33c847a9724147e6738" x1="209.074" y1="794.66" x2="1805.94" y2="794.66" stroke="#D9D9D9" stroke-width="2"></line>
    <line id="da46ecf16f5e4922382874162dc17069" x1="209.074" y1="721.537" x2="1805.94" y2="721.537" stroke="#D9D9D9" stroke-width="2"></line>
    <line id="610563ac1f41eecae47acea080337c87" x1="209.074" y1="648.414" x2="1805.94" y2="648.414" stroke="#D9D9D9" stroke-width="2"></line>
    <line id="6f853ffb784d2c1ad63eb577e247e4fa" x1="209.074" y1="575.291" x2="1805.94" y2="575.291" stroke="#D9D9D9" stroke-width="2"></line>
    <line id="577d9eb7761e8664ec76dd70e9b87082" x1="209.074" y1="502.168" x2="1805.94" y2="502.168" stroke="#D9D9D9" stroke-width="2"></line>
    <line id="9fa8ceae5ce6cbe388643734602fd3cc" x1="209.074" y1="429.045" x2="1805.94" y2="429.045" stroke="#D9D9D9" stroke-width="2"></line>
    <line id="159da508d1722251af945fd4e40f3de6" x1="209.074" y1="355.922" x2="1805.94" y2="355.922" stroke="#D9D9D9" stroke-width="2"></line>
    <line id="50eaa8e0f0e11b4926f2897cc46d2b5f" x1="209.074" y1="282.799" x2="1805.94" y2="282.799" stroke="#D9D9D9" stroke-width="2"></line>
    <line id="655a61e2f13c842cf5c0d31977477c36" x1="209.074" y1="209.676" x2="1805.94" y2="209.676" stroke="#D9D9D9" stroke-width="2"></line>
    <path id="bc5067ce9b8cbe8601382905e5960631" d="M337.305 129.394L353.751 86.7109H343.384L331.609 119.539L319.771 86.7109H309.404L325.914 129.394H337.305ZM368.215 130.162C373.015 130.162 377.878 128.691 380.95 125.875L377.366 120.627C375.382 122.547 371.735 123.699 369.111 123.699C363.863 123.699 360.728 120.435 360.216 116.532H383.189V114.74C383.189 104.629 376.918 97.7177 367.703 97.7177C358.296 97.7177 351.705 104.949 351.705 113.908C351.705 123.827 358.808 130.162 368.215 130.162ZM375.318 111.028H360.088C360.472 107.957 362.648 104.181 367.703 104.181C373.079 104.181 375.126 108.085 375.318 111.028ZM397.187 129.394V108.981C398.531 106.997 402.115 105.461 404.802 105.461C405.698 105.461 406.466 105.525 407.042 105.653V97.7177C403.202 97.7177 399.363 99.9575 397.187 102.709V98.4857H389.06V129.394H397.187ZM420.247 129.394V86.7109H412.12V129.394H420.247ZM457.295 129.394V98.4857H449.168V119.412C447.76 121.203 445.264 122.931 442.128 122.931C438.673 122.931 436.433 121.523 436.433 117.236V98.4857H428.306V120.435C428.306 126.451 431.505 130.162 438.289 130.162C443.344 130.162 447.056 127.859 449.168 125.491V129.394H457.295ZM476.499 130.162C485.074 130.162 489.874 125.875 489.874 120.243C489.874 107.765 471.572 111.604 471.572 106.997C471.572 105.269 473.492 103.925 476.435 103.925C480.211 103.925 483.731 105.525 485.586 107.509L488.85 101.941C485.778 99.5096 481.619 97.7177 476.371 97.7177C468.244 97.7177 463.701 102.261 463.701 107.445C463.701 119.603 482.067 115.444 482.067 120.563C482.067 122.483 480.403 123.891 476.883 123.891C473.044 123.891 468.436 121.779 466.196 119.667L462.677 125.363C465.94 128.371 471.124 130.162 476.499 130.162ZM506.228 130.162C509.62 130.162 511.796 129.266 513.012 128.179L511.284 122.035C510.836 122.483 509.684 122.931 508.468 122.931C506.676 122.931 505.652 121.459 505.652 119.539V105.589H511.924V98.4857H505.652V90.0385H497.461V98.4857H492.342V105.589H497.461V121.715C497.461 127.219 500.533 130.162 506.228 130.162ZM563.294 129.394V86.7109H555.103V102.453C552.671 99.3176 549.216 97.7177 545.568 97.7177C537.697 97.7177 531.874 103.861 531.874 113.972C531.874 124.275 537.761 130.162 545.568 130.162C549.28 130.162 552.671 128.499 555.103 125.427V129.394H563.294ZM548.064 122.931C543.456 122.931 540.257 119.284 540.257 113.972C540.257 108.597 543.456 104.949 548.064 104.949C550.816 104.949 553.759 106.421 555.103 108.469V119.412C553.759 121.459 550.816 122.931 548.064 122.931ZM585.88 130.162C590.68 130.162 595.543 128.691 598.615 125.875L595.031 120.627C593.047 122.547 589.4 123.699 586.776 123.699C581.528 123.699 578.393 120.435 577.881 116.532H600.854V114.74C600.854 104.629 594.583 97.7177 585.368 97.7177C575.961 97.7177 569.37 104.949 569.37 113.908C569.37 123.827 576.473 130.162 585.88 130.162ZM592.983 111.028H577.753C578.137 107.957 580.313 104.181 585.368 104.181C590.744 104.181 592.791 108.085 592.983 111.028ZM614.852 129.394V108.981C616.196 106.997 619.78 105.461 622.467 105.461C623.363 105.461 624.131 105.525 624.707 105.653V97.7177C620.867 97.7177 617.028 99.9575 614.852 102.709V98.4857H606.725V129.394H614.852ZM686.154 129.394L669.708 86.7109H658.317L641.807 129.394H652.174L654.861 122.163H673.163L675.787 129.394H686.154ZM670.668 114.164H657.357L664.012 95.7979L670.668 114.164ZM701.039 130.162C709.614 130.162 714.413 125.875 714.413 120.243C714.413 107.765 696.111 111.604 696.111 106.997C696.111 105.269 698.031 103.925 700.975 103.925C704.75 103.925 708.27 105.525 710.126 107.509L713.389 101.941C710.318 99.5096 706.158 97.7177 700.911 97.7177C692.783 97.7177 688.24 102.261 688.24 107.445C688.24 119.603 706.606 115.444 706.606 120.563C706.606 122.483 704.942 123.891 701.423 123.891C697.583 123.891 692.975 121.779 690.736 119.667L687.216 125.363C690.48 128.371 695.663 130.162 701.039 130.162ZM730.767 130.162C734.159 130.162 736.335 129.266 737.551 128.179L735.823 122.035C735.375 122.483 734.223 122.931 733.007 122.931C731.215 122.931 730.192 121.459 730.192 119.539V105.589H736.463V98.4857H730.192V90.0385H722V98.4857H716.881V105.589H722V121.715C722 127.219 725.072 130.162 730.767 130.162ZM771.076 129.394V107.445C771.076 101.429 767.813 97.7177 761.029 97.7177C755.974 97.7177 752.134 100.149 750.151 102.517V86.7109H742.023V129.394H750.151V108.597C751.558 106.741 754.054 104.949 757.19 104.949C760.709 104.949 762.949 106.293 762.949 110.58V129.394H771.076ZM825.668 129.394V107.061C825.668 100.725 822.276 97.7177 816.581 97.7177C811.845 97.7177 807.75 100.533 805.958 103.349C804.806 99.8295 801.926 97.7177 797.383 97.7177C792.647 97.7177 788.552 100.661 787.272 102.517V98.4857H779.144V129.394H787.272V108.597C788.488 106.869 790.855 104.949 793.671 104.949C796.999 104.949 798.279 106.997 798.279 109.876V129.394H806.47V108.533C807.622 106.869 809.989 104.949 812.869 104.949C816.197 104.949 817.477 106.997 817.477 109.876V129.394H825.668ZM860.324 129.394V109.429C860.324 100.533 853.861 97.7177 846.822 97.7177C841.958 97.7177 837.095 99.2536 833.319 102.581L836.391 108.021C839.014 105.589 842.086 104.373 845.414 104.373C849.509 104.373 852.197 106.421 852.197 109.557V113.716C850.149 111.284 846.502 109.94 842.406 109.94C837.478 109.94 831.655 112.692 831.655 119.923C831.655 126.835 837.478 130.162 842.406 130.162C846.438 130.162 850.085 128.691 852.197 126.195V129.394H860.324ZM845.67 124.659C842.47 124.659 839.846 122.995 839.846 120.115C839.846 117.108 842.47 115.444 845.67 115.444C848.293 115.444 850.853 116.34 852.197 118.132V121.971C850.853 123.763 848.293 124.659 845.67 124.659ZM898.59 129.394L885.983 112.5L898.206 98.4857H888.223L876.512 112.244V86.7109H868.385V129.394H876.512V121.459L880.224 117.492L888.415 129.394H898.59ZM916.591 130.162C926.83 130.162 932.974 122.739 932.974 113.908C932.974 105.141 926.83 97.7177 916.591 97.7177C906.416 97.7177 900.273 105.141 900.273 113.908C900.273 122.739 906.416 130.162 916.591 130.162ZM916.591 122.931C911.536 122.931 908.72 118.772 908.72 113.908C908.72 109.109 911.536 104.949 916.591 104.949C921.647 104.949 924.526 109.109 924.526 113.908C924.526 118.772 921.647 122.931 916.591 122.931ZM967.992 129.394V107.573C967.992 101.557 964.728 97.7177 957.945 97.7177C952.89 97.7177 949.114 100.149 947.13 102.517V98.4857H939.003V129.394H947.13V108.597C948.474 106.741 950.97 104.949 954.169 104.949C957.625 104.949 959.865 106.421 959.865 110.708V129.394H967.992ZM986.429 130.162C989.82 130.162 991.996 129.266 993.212 128.179L991.484 122.035C991.036 122.483 989.884 122.931 988.668 122.931C986.876 122.931 985.853 121.459 985.853 119.539V105.589H992.124V98.4857H985.853V90.0385H977.661V98.4857H972.542V105.589H977.661V121.715C977.661 127.219 980.733 130.162 986.429 130.162ZM1005.81 129.394V108.981C1007.16 106.997 1010.74 105.461 1013.43 105.461C1014.32 105.461 1015.09 105.525 1015.67 105.653V97.7177C1011.83 97.7177 1007.99 99.9575 1005.81 102.709V98.4857H997.684V129.394H1005.81ZM1035.08 130.162C1045.32 130.162 1051.46 122.739 1051.46 113.908C1051.46 105.141 1045.32 97.7177 1035.08 97.7177C1024.9 97.7177 1018.76 105.141 1018.76 113.908C1018.76 122.739 1024.9 130.162 1035.08 130.162ZM1035.08 122.931C1030.02 122.931 1027.21 118.772 1027.21 113.908C1027.21 109.109 1030.02 104.949 1035.08 104.949C1040.13 104.949 1043.01 109.109 1043.01 113.908C1043.01 118.772 1040.13 122.931 1035.08 122.931ZM1065.62 129.394V86.7109H1057.49V129.394H1065.62ZM1081.8 129.394V86.7109H1073.68V129.394H1081.8ZM1104.39 130.162C1109.19 130.162 1114.05 128.691 1117.12 125.875L1113.54 120.627C1111.56 122.547 1107.91 123.699 1105.28 123.699C1100.04 123.699 1096.9 120.435 1096.39 116.532H1119.36V114.74C1119.36 104.629 1113.09 97.7177 1103.88 97.7177C1094.47 97.7177 1087.88 104.949 1087.88 113.908C1087.88 123.827 1094.98 130.162 1104.39 130.162ZM1111.49 111.028H1096.26C1096.65 107.957 1098.82 104.181 1103.88 104.181C1109.25 104.181 1111.3 108.085 1111.49 111.028ZM1170.6 129.394V107.573C1170.6 101.557 1167.33 97.7177 1160.55 97.7177C1155.49 97.7177 1151.72 100.149 1149.73 102.517V98.4857H1141.61V129.394H1149.73V108.597C1151.08 106.741 1153.57 104.949 1156.77 104.949C1160.23 104.949 1162.47 106.421 1162.47 110.708V129.394H1170.6ZM1205.35 129.394V109.429C1205.35 100.533 1198.89 97.7177 1191.85 97.7177C1186.98 97.7177 1182.12 99.2536 1178.35 102.581L1181.42 108.021C1184.04 105.589 1187.11 104.373 1190.44 104.373C1194.54 104.373 1197.22 106.421 1197.22 109.557V113.716C1195.18 111.284 1191.53 109.94 1187.43 109.94C1182.51 109.94 1176.68 112.692 1176.68 119.923C1176.68 126.835 1182.51 130.162 1187.43 130.162C1191.46 130.162 1195.11 128.691 1197.22 126.195V129.394H1205.35ZM1190.7 124.659C1187.5 124.659 1184.87 122.995 1184.87 120.115C1184.87 117.108 1187.5 115.444 1190.7 115.444C1193.32 115.444 1195.88 116.34 1197.22 118.132V121.971C1195.88 123.763 1193.32 124.659 1190.7 124.659ZM1227.81 130.162C1234.15 130.162 1237.99 127.411 1240.03 124.531L1234.72 119.603C1233.25 121.651 1231.01 122.931 1228.19 122.931C1223.27 122.931 1219.81 119.284 1219.81 113.908C1219.81 108.533 1223.27 104.949 1228.19 104.949C1231.01 104.949 1233.25 106.101 1234.72 108.277L1240.03 103.285C1237.99 100.469 1234.15 97.7177 1227.81 97.7177C1218.28 97.7177 1211.43 104.437 1211.43 113.908C1211.43 123.443 1218.28 130.162 1227.81 130.162ZM1274.4 129.394V107.445C1274.4 101.429 1271.14 97.7177 1264.35 97.7177C1259.3 97.7177 1255.46 100.149 1253.47 102.517V86.7109H1245.35V129.394H1253.47V108.597C1254.88 106.741 1257.38 104.949 1260.51 104.949C1264.03 104.949 1266.27 106.293 1266.27 110.58V129.394H1274.4ZM1316.89 129.394V86.7109H1308.95L1295.51 100.213L1300.7 105.653L1307.8 98.4217V129.394H1316.89ZM1356.25 129.394V121.395H1338.85C1349.92 113.332 1355.93 106.997 1355.93 99.7015C1355.93 91.1904 1348.7 86.071 1339.61 86.071C1333.66 86.071 1327.33 88.2467 1323.17 93.0462L1328.35 99.0616C1331.23 96.0539 1334.94 94.1341 1339.8 94.1341C1343.32 94.1341 1346.72 95.9899 1346.72 99.7015C1346.72 104.949 1341.6 109.365 1324.13 122.291V129.394H1356.25ZM1422.39 129.394L1434.55 86.7109H1424.31L1416.88 117.556L1408.82 86.7109H1401.72L1393.59 117.556L1386.1 86.7109H1375.93L1388.15 129.394H1397.81L1405.24 100.086L1412.72 129.394H1422.39ZM1450.41 130.162C1460.65 130.162 1466.79 122.739 1466.79 113.908C1466.79 105.141 1460.65 97.7177 1450.41 97.7177C1440.24 97.7177 1434.09 105.141 1434.09 113.908C1434.09 122.739 1440.24 130.162 1450.41 130.162ZM1450.41 122.931C1445.36 122.931 1442.54 118.772 1442.54 113.908C1442.54 109.109 1445.36 104.949 1450.41 104.949C1455.47 104.949 1458.35 109.109 1458.35 113.908C1458.35 118.772 1455.47 122.931 1450.41 122.931ZM1487.22 130.162C1493.56 130.162 1497.4 127.411 1499.44 124.531L1494.13 119.603C1492.66 121.651 1490.42 122.931 1487.61 122.931C1482.68 122.931 1479.22 119.284 1479.22 113.908C1479.22 108.533 1482.68 104.949 1487.61 104.949C1490.42 104.949 1492.66 106.101 1494.13 108.277L1499.44 103.285C1497.4 100.469 1493.56 97.7177 1487.22 97.7177C1477.69 97.7177 1470.84 104.437 1470.84 113.908C1470.84 123.443 1477.69 130.162 1487.22 130.162ZM1533.81 129.394V107.445C1533.81 101.429 1530.55 97.7177 1523.76 97.7177C1518.71 97.7177 1514.87 100.149 1512.88 102.517V86.7109H1504.76V129.394H1512.88V108.597C1514.29 106.741 1516.79 104.949 1519.92 104.949C1523.44 104.949 1525.68 106.293 1525.68 110.58V129.394H1533.81ZM1556.4 130.162C1561.2 130.162 1566.07 128.691 1569.14 125.875L1565.56 120.627C1563.57 122.547 1559.92 123.699 1557.3 123.699C1552.05 123.699 1548.92 120.435 1548.41 116.532H1571.38V114.74C1571.38 104.629 1565.11 97.7177 1555.89 97.7177C1546.49 97.7177 1539.89 104.949 1539.89 113.908C1539.89 123.827 1547 130.162 1556.4 130.162ZM1563.51 111.028H1548.28C1548.66 107.957 1550.84 104.181 1555.89 104.181C1561.27 104.181 1563.32 108.085 1563.51 111.028ZM1606.24 129.394V107.573C1606.24 101.557 1602.97 97.7177 1596.19 97.7177C1591.14 97.7177 1587.36 100.149 1585.38 102.517V98.4857H1577.25V129.394H1585.38V108.597C1586.72 106.741 1589.22 104.949 1592.42 104.949C1595.87 104.949 1598.11 106.421 1598.11 110.708V129.394H1606.24Z" fill="black"></path>
    <path id="14ed3e6020c8aa73381771a969e7a0fb" d="M240.986 932.633V919.073C240.986 914.873 238.866 912.833 234.826 912.833C231.946 912.833 229.306 914.513 227.946 916.113V913.313H224.946V932.633H227.946V918.513C229.066 916.953 231.306 915.513 233.666 915.513C236.266 915.513 237.986 916.593 237.986 919.993V932.633H240.986ZM273.09 916.473V914.353H255.45V916.473H273.09ZM273.09 924.193V922.113H255.45V924.193H273.09ZM305.043 932.633V929.673H291.963C299.403 923.793 304.923 918.833 304.923 913.393C304.923 908.073 300.403 905.553 295.963 905.553C292.203 905.553 288.723 907.073 286.683 909.753L288.723 911.873C290.283 909.873 292.763 908.513 295.963 908.513C298.723 908.513 301.523 909.993 301.523 913.393C301.523 917.993 296.323 922.433 286.723 929.993V932.633H305.043ZM318.839 933.073C326.319 933.073 329.679 926.513 329.679 919.313C329.679 912.033 326.839 905.513 319.359 905.513C313.559 905.513 310.039 909.633 310.039 914.233C310.039 919.913 313.999 922.753 318.799 922.753C322.199 922.753 325.159 920.433 326.319 918.593C326.359 918.953 326.359 919.313 326.359 919.673C326.359 924.713 324.239 930.113 318.839 930.113C316.079 930.113 314.479 928.993 313.119 927.393L311.439 929.873C313.119 931.793 315.439 933.073 318.839 933.073ZM319.559 919.873C316.119 919.873 313.399 918.033 313.399 914.113C313.399 911.593 315.439 908.473 319.519 908.473C324.159 908.473 325.919 912.593 326.199 915.913C324.799 918.273 322.199 919.873 319.559 919.873ZM344.032 933.113C349.872 933.113 353.392 929.033 353.392 924.393C353.392 918.713 349.472 915.873 344.672 915.873C341.232 915.873 338.272 918.193 337.112 920.033C337.072 919.673 337.072 919.353 337.072 918.993C337.072 913.753 339.432 908.513 344.592 908.513C347.392 908.513 348.952 909.633 350.312 911.233L351.992 908.753C350.352 906.873 348.032 905.553 344.592 905.553C337.112 905.553 333.752 912.113 333.752 919.353C333.752 926.593 336.592 933.113 344.032 933.113ZM343.912 930.153C339.272 930.153 337.512 926.073 337.192 922.753C338.672 920.393 341.232 918.753 343.872 918.753C347.312 918.753 350.032 920.593 350.032 924.513C350.032 927.073 348.032 930.153 343.912 930.153ZM228.386 981.633V971.033H235.786C241.066 971.033 244.146 967.353 244.146 962.993C244.146 958.633 241.146 954.953 235.786 954.953H225.066V981.633H228.386ZM235.386 968.073H228.386V957.913H235.386C238.546 957.913 240.706 959.993 240.706 962.993C240.706 965.993 238.546 968.073 235.386 968.073ZM262.721 981.633V968.353C262.721 963.673 259.321 961.833 255.241 961.833C252.081 961.833 249.601 962.873 247.521 965.033L248.921 967.113C250.641 965.273 252.521 964.433 254.841 964.433C257.641 964.433 259.721 965.913 259.721 968.513V971.993C258.161 970.193 255.961 969.353 253.321 969.353C250.041 969.353 246.561 971.393 246.561 975.713C246.561 979.913 250.041 982.113 253.321 982.113C255.921 982.113 258.121 981.193 259.721 979.433V981.633H262.721ZM254.401 979.953C251.601 979.953 249.641 978.193 249.641 975.753C249.641 973.273 251.601 971.513 254.401 971.513C256.521 971.513 258.561 972.313 259.721 973.913V977.553C258.561 979.153 256.521 979.953 254.401 979.953ZM273.615 982.113C275.375 982.113 276.455 981.593 277.215 980.873L276.335 978.633C275.935 979.073 275.135 979.433 274.295 979.433C272.975 979.433 272.335 978.393 272.335 976.953V964.953H276.255V962.313H272.335V957.033H269.335V962.313H266.135V964.953H269.335V977.593C269.335 980.473 270.775 982.113 273.615 982.113ZM281.973 959.553C283.093 959.553 284.013 958.673 284.013 957.553C284.013 956.433 283.093 955.513 281.973 955.513C280.893 955.513 279.973 956.433 279.973 957.553C279.973 958.673 280.893 959.553 281.973 959.553ZM283.493 981.633V962.313H280.493V981.633H283.493ZM298.197 982.113C301.357 982.113 303.957 981.073 305.877 979.153L304.437 977.193C302.917 978.753 300.677 979.633 298.477 979.633C294.317 979.633 291.757 976.593 291.517 972.953H307.157V972.193C307.157 966.393 303.717 961.833 297.877 961.833C292.357 961.833 288.357 966.353 288.357 971.953C288.357 977.993 292.477 982.113 298.197 982.113ZM304.197 970.753H291.517C291.677 967.793 293.717 964.313 297.837 964.313C302.237 964.313 304.157 967.873 304.197 970.753ZM328.056 981.633V968.073C328.056 963.873 325.936 961.833 321.896 961.833C319.016 961.833 316.376 963.513 315.016 965.113V962.313H312.016V981.633H315.016V967.513C316.136 965.953 318.376 964.513 320.736 964.513C323.336 964.513 325.056 965.593 325.056 968.993V981.633H328.056ZM338.927 982.113C340.687 982.113 341.767 981.593 342.527 980.873L341.647 978.633C341.247 979.073 340.447 979.433 339.607 979.433C338.287 979.433 337.647 978.393 337.647 976.953V964.953H341.567V962.313H337.647V957.033H334.647V962.313H331.447V964.953H334.647V977.593C334.647 980.473 336.087 982.113 338.927 982.113ZM354.525 982.113C357.685 982.113 360.285 981.073 362.205 979.153L360.765 977.193C359.245 978.753 357.005 979.633 354.805 979.633C350.645 979.633 348.085 976.593 347.845 972.953H363.485V972.193C363.485 966.393 360.045 961.833 354.205 961.833C348.685 961.833 344.685 966.353 344.685 971.953C344.685 977.993 348.805 982.113 354.525 982.113ZM360.525 970.753H347.845C348.005 967.793 350.045 964.313 354.165 964.313C358.565 964.313 360.485 967.873 360.525 970.753ZM384.384 981.633V968.073C384.384 963.873 382.264 961.833 378.224 961.833C375.344 961.833 372.704 963.513 371.344 965.113V962.313H368.344V981.633H371.344V967.513C372.464 965.953 374.704 964.513 377.064 964.513C379.664 964.513 381.384 965.593 381.384 968.993V981.633H384.384Z" fill="black"></path>
    <path id="481a8516ff508ee00eaa6419d2d642d0" d="M160.265 878.667C166.089 878.667 168.425 872.811 168.425 867.627C168.425 862.411 166.089 856.619 160.265 856.619C154.409 856.619 152.105 862.411 152.105 867.627C152.105 872.811 154.409 878.667 160.265 878.667ZM160.265 876.299C156.201 876.299 154.825 871.883 154.825 867.627C154.825 863.371 156.201 858.987 160.265 858.987C164.329 858.987 165.705 863.371 165.705 867.627C165.705 871.883 164.329 876.299 160.265 876.299Z" fill="#636363"></path>
    <path id="bbdf4d7f382324a2ba5d23217ef14489" d="M116.421 805.544C122.245 805.544 124.581 799.688 124.581 794.504C124.581 789.288 122.245 783.496 116.421 783.496C110.565 783.496 108.261 789.288 108.261 794.504C108.261 799.688 110.565 805.544 116.421 805.544ZM116.421 803.176C112.357 803.176 110.981 798.76 110.981 794.504C110.981 790.248 112.357 785.864 116.421 785.864C120.485 785.864 121.861 790.248 121.861 794.504C121.861 798.76 120.485 803.176 116.421 803.176ZM130.855 804.392C130.855 802.856 129.895 801.96 128.839 801.96C127.879 801.96 127.143 802.76 127.143 803.688C127.143 804.648 127.783 805.32 128.679 805.32C128.839 805.32 129.063 805.288 129.127 805.256C128.999 806.312 128.071 807.56 127.047 808.232L128.231 809.224C129.703 808.168 130.855 806.344 130.855 804.392ZM141.39 805.544C147.214 805.544 149.55 799.688 149.55 794.504C149.55 789.288 147.214 783.496 141.39 783.496C135.534 783.496 133.23 789.288 133.23 794.504C133.23 799.688 135.534 805.544 141.39 805.544ZM141.39 803.176C137.326 803.176 135.95 798.76 135.95 794.504C135.95 790.248 137.326 785.864 141.39 785.864C145.454 785.864 146.83 790.248 146.83 794.504C146.83 798.76 145.454 803.176 141.39 803.176ZM160.823 805.544C165.111 805.544 168.407 802.856 168.407 798.504C168.407 794.12 165.175 791.688 161.623 791.688C159.479 791.688 157.655 792.584 156.631 793.608V786.184H167.031V783.816H153.975V795.336L155.927 796.008C157.367 794.6 158.967 793.992 160.855 793.992C163.735 793.992 165.751 795.784 165.751 798.6C165.751 801.192 163.735 803.176 160.823 803.176C158.199 803.176 156.343 802.152 154.935 800.36L153.303 802.12C154.903 804.232 157.207 805.544 160.823 805.544Z" fill="#636363"></path>
    <path id="eb9930082e89bfd012f58e083f849aa3" d="M145.546 732.421C151.37 732.421 153.706 726.565 153.706 721.381C153.706 716.165 151.37 710.373 145.546 710.373C139.69 710.373 137.386 716.165 137.386 721.381C137.386 726.565 139.69 732.421 145.546 732.421ZM145.546 730.053C141.482 730.053 140.106 725.637 140.106 721.381C140.106 717.125 141.482 712.741 145.546 712.741C149.61 712.741 150.986 717.125 150.986 721.381C150.986 725.637 149.61 730.053 145.546 730.053ZM159.98 731.269C159.98 729.733 159.02 728.837 157.964 728.837C157.004 728.837 156.268 729.637 156.268 730.565C156.268 731.525 156.908 732.197 157.804 732.197C157.964 732.197 158.188 732.165 158.252 732.133C158.124 733.189 157.196 734.437 156.172 735.109L157.356 736.101C158.828 735.045 159.98 733.221 159.98 731.269ZM167.575 732.037V710.693H165.239L159.895 716.197L161.495 717.829L164.919 714.213V732.037H167.575Z" fill="#636363"></path>
    <path id="9ff0b2c943a96eca817d59aa65e7d261" d="M126.671 659.298C132.495 659.298 134.831 653.442 134.831 648.258C134.831 643.042 132.495 637.25 126.671 637.25C120.815 637.25 118.511 643.042 118.511 648.258C118.511 653.442 120.815 659.298 126.671 659.298ZM126.671 656.93C122.607 656.93 121.231 652.514 121.231 648.258C121.231 644.002 122.607 639.618 126.671 639.618C130.735 639.618 132.111 644.002 132.111 648.258C132.111 652.514 130.735 656.93 126.671 656.93ZM141.105 658.146C141.105 656.61 140.145 655.714 139.089 655.714C138.129 655.714 137.393 656.514 137.393 657.442C137.393 658.402 138.033 659.074 138.929 659.074C139.089 659.074 139.313 659.042 139.377 659.01C139.249 660.066 138.321 661.314 137.297 661.986L138.481 662.978C139.953 661.922 141.105 660.098 141.105 658.146ZM148.7 658.914V637.57H146.364L141.02 643.074L142.62 644.706L146.044 641.09V658.914H148.7ZM160.823 659.298C165.111 659.298 168.407 656.61 168.407 652.258C168.407 647.874 165.175 645.442 161.623 645.442C159.479 645.442 157.655 646.338 156.631 647.362V639.938H167.031V637.57H153.975V649.09L155.927 649.762C157.367 648.354 158.967 647.746 160.855 647.746C163.735 647.746 165.751 649.538 165.751 652.354C165.751 654.946 163.735 656.93 160.823 656.93C158.199 656.93 156.343 655.906 154.935 654.114L153.303 655.874C154.903 657.986 157.207 659.298 160.823 659.298Z" fill="#636363"></path>
    <path id="94195779081e197ceaf07554fc301f46" d="M135.077 586.175C140.901 586.175 143.237 580.319 143.237 575.135C143.237 569.919 140.901 564.127 135.077 564.127C129.221 564.127 126.917 569.919 126.917 575.135C126.917 580.319 129.221 586.175 135.077 586.175ZM135.077 583.807C131.013 583.807 129.637 579.391 129.637 575.135C129.637 570.879 131.013 566.495 135.077 566.495C139.141 566.495 140.517 570.879 140.517 575.135C140.517 579.391 139.141 583.807 135.077 583.807ZM149.511 585.023C149.511 583.487 148.551 582.591 147.495 582.591C146.535 582.591 145.799 583.391 145.799 584.319C145.799 585.279 146.439 585.951 147.335 585.951C147.495 585.951 147.719 585.919 147.783 585.887C147.655 586.943 146.727 588.191 145.703 588.863L146.887 589.855C148.359 588.799 149.511 586.975 149.511 585.023ZM167.638 585.791V583.423H157.174C163.126 578.719 167.542 574.751 167.542 570.399C167.542 566.143 163.926 564.127 160.374 564.127C157.366 564.127 154.582 565.343 152.95 567.487L154.582 569.183C155.83 567.583 157.814 566.495 160.374 566.495C162.582 566.495 164.822 567.679 164.822 570.399C164.822 574.079 160.662 577.631 152.982 583.679V585.791H167.638Z" fill="#636363"></path>
    <path id="3bb76d5b06d84a6dcfba253dcead24aa" d="M116.202 513.052C122.026 513.052 124.362 507.196 124.362 502.012C124.362 496.796 122.026 491.004 116.202 491.004C110.346 491.004 108.042 496.796 108.042 502.012C108.042 507.196 110.346 513.052 116.202 513.052ZM116.202 510.684C112.138 510.684 110.762 506.268 110.762 502.012C110.762 497.756 112.138 493.372 116.202 493.372C120.266 493.372 121.642 497.756 121.642 502.012C121.642 506.268 120.266 510.684 116.202 510.684ZM130.636 511.9C130.636 510.364 129.676 509.468 128.62 509.468C127.66 509.468 126.924 510.268 126.924 511.196C126.924 512.156 127.564 512.828 128.46 512.828C128.62 512.828 128.844 512.796 128.908 512.764C128.78 513.82 127.852 515.068 126.828 515.74L128.012 516.732C129.484 515.676 130.636 513.852 130.636 511.9ZM148.763 512.668V510.3H138.299C144.251 505.596 148.667 501.628 148.667 497.276C148.667 493.02 145.051 491.004 141.499 491.004C138.491 491.004 135.707 492.22 134.075 494.364L135.707 496.06C136.955 494.46 138.939 493.372 141.499 493.372C143.707 493.372 145.947 494.556 145.947 497.276C145.947 500.956 141.787 504.508 134.107 510.556V512.668H148.763ZM160.823 513.052C165.111 513.052 168.407 510.364 168.407 506.012C168.407 501.628 165.175 499.196 161.623 499.196C159.479 499.196 157.655 500.092 156.631 501.116V493.692H167.031V491.324H153.975V502.844L155.927 503.516C157.367 502.108 158.967 501.5 160.855 501.5C163.735 501.5 165.751 503.292 165.751 506.108C165.751 508.7 163.735 510.684 160.823 510.684C158.199 510.684 156.343 509.66 154.935 507.868L153.303 509.628C154.903 511.74 157.207 513.052 160.823 513.052Z" fill="#636363"></path>
    <path id="dc46f6c6c09f9e6e3122012ab639dc0e" d="M136.077 439.929C141.901 439.929 144.237 434.073 144.237 428.889C144.237 423.673 141.901 417.881 136.077 417.881C130.221 417.881 127.917 423.673 127.917 428.889C127.917 434.073 130.221 439.929 136.077 439.929ZM136.077 437.561C132.013 437.561 130.637 433.145 130.637 428.889C130.637 424.633 132.013 420.249 136.077 420.249C140.141 420.249 141.517 424.633 141.517 428.889C141.517 433.145 140.141 437.561 136.077 437.561ZM150.511 438.777C150.511 437.241 149.551 436.345 148.495 436.345C147.535 436.345 146.799 437.145 146.799 438.073C146.799 439.033 147.439 439.705 148.335 439.705C148.495 439.705 148.719 439.673 148.783 439.641C148.655 440.697 147.727 441.945 146.703 442.617L147.887 443.609C149.359 442.553 150.511 440.729 150.511 438.777ZM160.766 439.929C165.47 439.929 168.318 437.337 168.318 433.785C168.318 430.361 165.342 428.697 163.39 428.537C165.406 428.185 167.998 426.649 167.998 423.577C167.998 419.961 164.862 417.881 160.766 417.881C157.47 417.881 155.006 419.321 153.47 421.177L154.942 422.841C156.51 421.145 158.238 420.249 160.574 420.249C163.166 420.249 165.342 421.529 165.342 423.897C165.342 426.361 163.07 427.417 160.382 427.417C159.518 427.417 158.526 427.417 158.174 427.385V429.817C158.494 429.785 159.486 429.785 160.382 429.785C163.518 429.785 165.694 430.905 165.694 433.561C165.694 436.025 163.806 437.561 160.702 437.561C158.174 437.561 155.998 436.409 154.75 434.745L153.182 436.409C154.494 438.329 157.15 439.929 160.766 439.929Z" fill="#636363"></path>
    <path id="e2cb39aa6c8811edd6e9c4126cc59a7d" d="M117.202 366.806C123.026 366.806 125.362 360.95 125.362 355.766C125.362 350.55 123.026 344.758 117.202 344.758C111.346 344.758 109.042 350.55 109.042 355.766C109.042 360.95 111.346 366.806 117.202 366.806ZM117.202 364.438C113.138 364.438 111.762 360.022 111.762 355.766C111.762 351.51 113.138 347.126 117.202 347.126C121.266 347.126 122.642 351.51 122.642 355.766C122.642 360.022 121.266 364.438 117.202 364.438ZM131.636 365.654C131.636 364.118 130.676 363.222 129.62 363.222C128.66 363.222 127.924 364.022 127.924 364.95C127.924 365.91 128.564 366.582 129.46 366.582C129.62 366.582 129.844 366.55 129.908 366.518C129.78 367.574 128.852 368.822 127.828 369.494L129.012 370.486C130.484 369.43 131.636 367.606 131.636 365.654ZM141.891 366.806C146.595 366.806 149.443 364.214 149.443 360.662C149.443 357.238 146.467 355.574 144.515 355.414C146.531 355.062 149.123 353.526 149.123 350.454C149.123 346.838 145.987 344.758 141.891 344.758C138.595 344.758 136.131 346.198 134.595 348.054L136.067 349.718C137.635 348.022 139.363 347.126 141.699 347.126C144.291 347.126 146.467 348.406 146.467 350.774C146.467 353.238 144.195 354.294 141.507 354.294C140.643 354.294 139.651 354.294 139.299 354.262V356.694C139.619 356.662 140.611 356.662 141.507 356.662C144.643 356.662 146.819 357.782 146.819 360.438C146.819 362.902 144.931 364.438 141.827 364.438C139.299 364.438 137.123 363.286 135.875 361.622L134.307 363.286C135.619 365.206 138.275 366.806 141.891 366.806ZM160.823 366.806C165.111 366.806 168.407 364.118 168.407 359.766C168.407 355.382 165.175 352.95 161.623 352.95C159.479 352.95 157.655 353.846 156.631 354.87V347.446H167.031V345.078H153.975V356.598L155.927 357.27C157.367 355.862 158.967 355.254 160.855 355.254C163.735 355.254 165.751 357.046 165.751 359.862C165.751 362.454 163.735 364.438 160.823 364.438C158.199 364.438 156.343 363.414 154.935 361.622L153.303 363.382C154.903 365.494 157.207 366.806 160.823 366.806Z" fill="#636363"></path>
    <path id="d92e89272164a2d12149a1458aa31835" d="M136.046 293.683C141.87 293.683 144.206 287.827 144.206 282.643C144.206 277.427 141.87 271.635 136.046 271.635C130.19 271.635 127.886 277.427 127.886 282.643C127.886 287.827 130.19 293.683 136.046 293.683ZM136.046 291.315C131.982 291.315 130.606 286.899 130.606 282.643C130.606 278.387 131.982 274.003 136.046 274.003C140.11 274.003 141.486 278.387 141.486 282.643C141.486 286.899 140.11 291.315 136.046 291.315ZM150.48 292.531C150.48 290.995 149.52 290.099 148.464 290.099C147.504 290.099 146.768 290.899 146.768 291.827C146.768 292.787 147.408 293.459 148.304 293.459C148.464 293.459 148.688 293.427 148.752 293.395C148.624 294.451 147.696 295.699 146.672 296.371L147.856 297.363C149.328 296.307 150.48 294.483 150.48 292.531ZM166.047 293.299V287.891H169.055V285.555H166.047V271.955H162.399L153.247 285.683V287.891H163.391V293.299H166.047ZM163.391 285.555H155.903L163.391 274.419V285.555Z" fill="#636363"></path>
    <path id="d9b4fb2cb4bf392db55a33738ff63894" d="M117.171 220.56C122.995 220.56 125.331 214.704 125.331 209.52C125.331 204.304 122.995 198.512 117.171 198.512C111.315 198.512 109.011 204.304 109.011 209.52C109.011 214.704 111.315 220.56 117.171 220.56ZM117.171 218.192C113.107 218.192 111.731 213.776 111.731 209.52C111.731 205.264 113.107 200.88 117.171 200.88C121.235 200.88 122.611 205.264 122.611 209.52C122.611 213.776 121.235 218.192 117.171 218.192ZM131.605 219.408C131.605 217.872 130.645 216.976 129.589 216.976C128.629 216.976 127.893 217.776 127.893 218.704C127.893 219.664 128.533 220.336 129.429 220.336C129.589 220.336 129.813 220.304 129.877 220.272C129.749 221.328 128.821 222.576 127.797 223.248L128.981 224.24C130.453 223.184 131.605 221.36 131.605 219.408ZM147.172 220.176V214.768H150.18V212.432H147.172V198.832H143.524L134.372 212.56V214.768H144.516V220.176H147.172ZM144.516 212.432H137.028L144.516 201.296V212.432ZM160.823 220.56C165.111 220.56 168.407 217.872 168.407 213.52C168.407 209.136 165.175 206.704 161.623 206.704C159.479 206.704 157.655 207.6 156.631 208.624V201.2H167.031V198.832H153.975V210.352L155.927 211.024C157.367 209.616 158.967 209.008 160.855 209.008C163.735 209.008 165.751 210.8 165.751 213.616C165.751 216.208 163.735 218.192 160.823 218.192C158.199 218.192 156.343 217.168 154.935 215.376L153.303 217.136C154.903 219.248 157.207 220.56 160.823 220.56Z" fill="#636363"></path>
    <path id="e09714dcce2ab723832f5acfafb1ea84" d="M546.875 932.633V905.953H543.555V932.633H546.875ZM557.885 933.113C559.645 933.113 560.725 932.593 561.485 931.873L560.605 929.633C560.205 930.073 559.405 930.433 558.565 930.433C557.245 930.433 556.605 929.393 556.605 927.953V915.953H560.525V913.313H556.605V908.033H553.605V913.313H550.405V915.953H553.605V928.593C553.605 931.473 555.045 933.113 557.885 933.113ZM573.483 933.113C576.643 933.113 579.243 932.073 581.163 930.153L579.723 928.193C578.203 929.753 575.963 930.633 573.763 930.633C569.603 930.633 567.043 927.593 566.803 923.953H582.443V923.193C582.443 917.393 579.003 912.833 573.163 912.833C567.643 912.833 563.643 917.353 563.643 922.953C563.643 928.993 567.763 933.113 573.483 933.113ZM579.483 921.753H566.803C566.963 918.793 569.003 915.313 573.123 915.313C577.523 915.313 579.443 918.873 579.483 921.753ZM596.822 933.113C601.902 933.113 605.422 929.193 605.422 922.953C605.422 916.673 601.902 912.833 596.822 912.833C594.102 912.833 591.702 914.233 590.302 916.193V913.313H587.302V939.993H590.302V929.713C591.862 931.873 594.182 933.113 596.822 933.113ZM596.062 930.433C593.702 930.433 591.342 928.993 590.302 927.313V918.593C591.342 916.913 593.702 915.513 596.062 915.513C599.942 915.513 602.262 918.673 602.262 922.953C602.262 927.233 599.942 930.433 596.062 930.433ZM618.913 933.113C622.073 933.113 624.673 932.073 626.593 930.153L625.153 928.193C623.633 929.753 621.393 930.633 619.193 930.633C615.033 930.633 612.473 927.593 612.233 923.953H627.873V923.193C627.873 917.393 624.433 912.833 618.593 912.833C613.073 912.833 609.073 917.353 609.073 922.953C609.073 928.993 613.193 933.113 618.913 933.113ZM624.913 921.753H612.233C612.393 918.793 614.433 915.313 618.553 915.313C622.953 915.313 624.873 918.873 624.913 921.753ZM649.732 932.633L641.132 922.073L649.692 913.313H645.892L635.732 923.593V905.953H632.732V932.633H635.732V927.113L638.932 923.953L645.892 932.633H649.732ZM654.759 910.553C655.879 910.553 656.799 909.673 656.799 908.553C656.799 907.433 655.879 906.513 654.759 906.513C653.679 906.513 652.759 907.433 652.759 908.553C652.759 909.673 653.679 910.553 654.759 910.553ZM656.279 932.633V913.313H653.279V932.633H656.279ZM688.583 932.633V918.673C688.583 914.793 686.703 912.833 683.183 912.833C680.383 912.833 677.783 914.673 676.703 916.433C676.143 914.433 674.463 912.833 671.503 912.833C668.663 912.833 666.063 914.873 665.263 916.113V913.313H662.263V932.633H665.263V918.513C666.303 916.953 668.383 915.513 670.343 915.513C672.863 915.513 673.903 917.073 673.903 919.513V932.633H676.903V918.473C677.903 916.953 680.023 915.513 682.023 915.513C684.503 915.513 685.583 917.073 685.583 919.513V932.633H688.583ZM709.648 932.633V919.353C709.648 914.673 706.248 912.833 702.168 912.833C699.008 912.833 696.528 913.873 694.448 916.033L695.848 918.113C697.568 916.273 699.448 915.433 701.768 915.433C704.568 915.433 706.648 916.913 706.648 919.513V922.993C705.088 921.193 702.888 920.353 700.248 920.353C696.968 920.353 693.488 922.393 693.488 926.713C693.488 930.913 696.968 933.113 700.248 933.113C702.848 933.113 705.048 932.193 706.648 930.433V932.633H709.648ZM701.328 930.953C698.528 930.953 696.568 929.193 696.568 926.753C696.568 924.273 698.528 922.513 701.328 922.513C703.448 922.513 705.488 923.313 706.648 924.913V928.553C705.488 930.153 703.448 930.953 701.328 930.953ZM718.661 927.393V918.633C719.701 916.953 722.061 915.513 724.421 915.513C728.341 915.513 730.661 918.713 730.661 922.993C730.661 927.273 728.341 930.433 724.421 930.433C722.061 930.433 719.701 929.073 718.661 927.393ZM718.661 932.633V929.753C720.101 931.713 722.461 933.113 725.181 933.113C730.221 933.113 733.781 929.273 733.781 922.993C733.781 916.833 730.221 912.833 725.181 912.833C722.541 912.833 720.221 914.113 718.661 916.233V905.953H715.661V932.633H718.661Z" fill="black"></path>
    <path id="58b4735d947f366f5b3b39194ede5a7f" d="M885.479 932.633L873.399 918.633L884.519 905.953H880.359L868.559 919.753V905.953H865.239V932.633H868.559V923.673L871.239 920.633L881.359 932.633H885.479ZM896.215 933.113C902.095 933.113 905.775 928.553 905.775 922.953C905.775 917.353 902.095 912.833 896.215 912.833C890.335 912.833 886.655 917.353 886.655 922.953C886.655 928.553 890.335 933.113 896.215 933.113ZM896.215 930.433C892.095 930.433 889.775 926.913 889.775 922.953C889.775 919.033 892.095 915.513 896.215 915.513C900.335 915.513 902.615 919.033 902.615 922.953C902.615 926.913 900.335 930.433 896.215 930.433ZM936.985 932.633V918.673C936.985 914.793 935.105 912.833 931.585 912.833C928.785 912.833 926.185 914.673 925.105 916.433C924.545 914.433 922.865 912.833 919.905 912.833C917.065 912.833 914.465 914.873 913.665 916.113V913.313H910.665V932.633H913.665V918.513C914.705 916.953 916.785 915.513 918.745 915.513C921.265 915.513 922.305 917.073 922.305 919.513V932.633H925.305V918.473C926.305 916.953 928.425 915.513 930.425 915.513C932.905 915.513 933.985 917.073 933.985 919.513V932.633H936.985ZM945.97 927.393V918.633C947.01 916.953 949.37 915.513 951.73 915.513C955.65 915.513 957.97 918.713 957.97 922.993C957.97 927.273 955.65 930.433 951.73 930.433C949.37 930.433 947.01 929.073 945.97 927.393ZM945.97 932.633V929.753C947.41 931.713 949.77 933.113 952.49 933.113C957.53 933.113 961.09 929.273 961.09 922.993C961.09 916.833 957.53 912.833 952.49 912.833C949.85 912.833 947.53 914.113 945.97 916.233V905.953H942.97V932.633H945.97ZM967.458 910.553C968.578 910.553 969.498 909.673 969.498 908.553C969.498 907.433 968.578 906.513 967.458 906.513C966.378 906.513 965.458 907.433 965.458 908.553C965.458 909.673 966.378 910.553 967.458 910.553ZM968.978 932.633V913.313H965.978V932.633H968.978ZM991.002 932.633V919.073C991.002 914.873 988.882 912.833 984.842 912.833C981.962 912.833 979.322 914.513 977.962 916.113V913.313H974.962V932.633H977.962V918.513C979.082 916.953 981.322 915.513 983.682 915.513C986.282 915.513 988.002 916.593 988.002 919.993V932.633H991.002ZM1012.07 932.633V919.353C1012.07 914.673 1008.67 912.833 1004.59 912.833C1001.43 912.833 998.954 913.873 996.874 916.033L998.274 918.113C999.994 916.273 1001.87 915.433 1004.19 915.433C1006.99 915.433 1009.07 916.913 1009.07 919.513V922.993C1007.51 921.193 1005.31 920.353 1002.67 920.353C999.394 920.353 995.914 922.393 995.914 926.713C995.914 930.913 999.394 933.113 1002.67 933.113C1005.27 933.113 1007.47 932.193 1009.07 930.433V932.633H1012.07ZM1003.75 930.953C1000.95 930.953 998.994 929.193 998.994 926.753C998.994 924.273 1000.95 922.513 1003.75 922.513C1005.87 922.513 1007.91 923.313 1009.07 924.913V928.553C1007.91 930.153 1005.87 930.953 1003.75 930.953ZM1022.97 933.113C1024.73 933.113 1025.81 932.593 1026.57 931.873L1025.69 929.633C1025.29 930.073 1024.49 930.433 1023.65 930.433C1022.33 930.433 1021.69 929.393 1021.69 927.953V915.953H1025.61V913.313H1021.69V908.033H1018.69V913.313H1015.49V915.953H1018.69V928.593C1018.69 931.473 1020.13 933.113 1022.97 933.113ZM1031.33 910.553C1032.45 910.553 1033.37 909.673 1033.37 908.553C1033.37 907.433 1032.45 906.513 1031.33 906.513C1030.25 906.513 1029.33 907.433 1029.33 908.553C1029.33 909.673 1030.25 910.553 1031.33 910.553ZM1032.85 932.633V913.313H1029.85V932.633H1032.85ZM1047.27 933.113C1053.15 933.113 1056.83 928.553 1056.83 922.953C1056.83 917.353 1053.15 912.833 1047.27 912.833C1041.39 912.833 1037.71 917.353 1037.71 922.953C1037.71 928.553 1041.39 933.113 1047.27 933.113ZM1047.27 930.433C1043.15 930.433 1040.83 926.913 1040.83 922.953C1040.83 919.033 1043.15 915.513 1047.27 915.513C1051.39 915.513 1053.67 919.033 1053.67 922.953C1053.67 926.913 1051.39 930.433 1047.27 930.433ZM1077.76 932.633V919.073C1077.76 914.873 1075.64 912.833 1071.6 912.833C1068.72 912.833 1066.08 914.513 1064.72 916.113V913.313H1061.72V932.633H1064.72V918.513C1065.84 916.953 1068.08 915.513 1070.44 915.513C1073.04 915.513 1074.76 916.593 1074.76 919.993V932.633H1077.76ZM850.316 981.633C858.596 981.633 863.996 975.913 863.996 968.313C863.996 960.753 858.596 954.953 850.316 954.953H841.196V981.633H850.316ZM850.316 978.673H844.516V957.913H850.316C856.916 957.913 860.556 962.553 860.556 968.313C860.556 974.033 856.796 978.673 850.316 978.673ZM885.123 981.633V962.313H882.123V976.513C881.003 978.073 878.763 979.433 876.403 979.433C873.803 979.433 872.083 978.433 872.083 975.033V962.313H869.083V975.953C869.083 980.153 871.203 982.113 875.243 982.113C878.123 982.113 880.643 980.593 882.123 978.913V981.633H885.123ZM900.635 982.113C905.715 982.113 909.235 978.193 909.235 971.953C909.235 965.673 905.715 961.833 900.635 961.833C897.915 961.833 895.515 963.233 894.115 965.193V962.313H891.115V988.993H894.115V978.713C895.675 980.873 897.995 982.113 900.635 982.113ZM899.875 979.433C897.515 979.433 895.155 977.993 894.115 976.313V967.593C895.155 965.913 897.515 964.513 899.875 964.513C903.755 964.513 906.075 967.673 906.075 971.953C906.075 976.233 903.755 979.433 899.875 979.433ZM915.485 959.553C916.605 959.553 917.525 958.673 917.525 957.553C917.525 956.433 916.605 955.513 915.485 955.513C914.405 955.513 913.485 956.433 913.485 957.553C913.485 958.673 914.405 959.553 915.485 959.553ZM917.005 981.633V962.313H914.005V981.633H917.005ZM925.99 981.633V954.953H922.99V981.633H925.99ZM948.014 981.633V962.313H945.014V976.513C943.894 978.073 941.654 979.433 939.294 979.433C936.694 979.433 934.974 978.433 934.974 975.033V962.313H931.974V975.953C931.974 980.153 934.094 982.113 938.134 982.113C941.014 982.113 943.534 980.593 945.014 978.913V981.633H948.014ZM980.325 981.633V967.673C980.325 963.793 978.445 961.833 974.925 961.833C972.125 961.833 969.525 963.673 968.445 965.433C967.885 963.433 966.205 961.833 963.245 961.833C960.405 961.833 957.805 963.873 957.005 965.113V962.313H954.005V981.633H957.005V967.513C958.045 965.953 960.125 964.513 962.085 964.513C964.605 964.513 965.645 966.073 965.645 968.513V981.633H968.645V967.473C969.645 965.953 971.765 964.513 973.765 964.513C976.245 964.513 977.325 966.073 977.325 968.513V981.633H980.325ZM1001.39 981.633V968.353C1001.39 963.673 997.99 961.833 993.91 961.833C990.75 961.833 988.27 962.873 986.19 965.033L987.59 967.113C989.31 965.273 991.19 964.433 993.51 964.433C996.31 964.433 998.39 965.913 998.39 968.513V971.993C996.83 970.193 994.63 969.353 991.99 969.353C988.71 969.353 985.23 971.393 985.23 975.713C985.23 979.913 988.71 982.113 991.99 982.113C994.59 982.113 996.79 981.193 998.39 979.433V981.633H1001.39ZM993.07 979.953C990.27 979.953 988.31 978.193 988.31 975.753C988.31 973.273 990.27 971.513 993.07 971.513C995.19 971.513 997.23 972.313 998.39 973.913V977.553C997.23 979.153 995.19 979.953 993.07 979.953ZM1010.4 976.393V967.633C1011.44 965.953 1013.8 964.513 1016.16 964.513C1020.08 964.513 1022.4 967.713 1022.4 971.993C1022.4 976.273 1020.08 979.433 1016.16 979.433C1013.8 979.433 1011.44 978.073 1010.4 976.393ZM1010.4 981.633V978.753C1011.84 980.713 1014.2 982.113 1016.92 982.113C1021.96 982.113 1025.52 978.273 1025.52 971.993C1025.52 965.833 1021.96 961.833 1016.92 961.833C1014.28 961.833 1011.96 963.113 1010.4 965.233V954.953H1007.4V981.633H1010.4ZM1056.76 981.633V962.313H1053.76V976.513C1052.64 978.073 1050.4 979.433 1048.04 979.433C1045.44 979.433 1043.72 978.433 1043.72 975.033V962.313H1040.72V975.953C1040.72 980.153 1042.84 982.113 1046.88 982.113C1049.76 982.113 1052.28 980.593 1053.76 978.913V981.633H1056.76ZM1078.8 981.633V968.073C1078.8 963.873 1076.68 961.833 1072.64 961.833C1069.76 961.833 1067.12 963.513 1065.76 965.113V962.313H1062.76V981.633H1065.76V967.513C1066.88 965.953 1069.12 964.513 1071.48 964.513C1074.08 964.513 1075.8 965.593 1075.8 968.993V981.633H1078.8ZM1101.79 981.633V954.953H1098.79V965.233C1097.23 963.113 1094.87 961.833 1092.27 961.833C1087.19 961.833 1083.67 965.833 1083.67 971.993C1083.67 978.273 1087.23 982.113 1092.27 982.113C1094.99 982.113 1097.35 980.713 1098.79 978.753V981.633H1101.79ZM1092.99 979.433C1089.11 979.433 1086.79 976.273 1086.79 971.993C1086.79 967.713 1089.11 964.513 1092.99 964.513C1095.39 964.513 1097.71 965.953 1098.79 967.633V976.393C1097.71 978.073 1095.39 979.433 1092.99 979.433ZM880.258 1030.63V1003.95H876.938V1030.63H880.258ZM891.268 1031.11C893.028 1031.11 894.108 1030.59 894.868 1029.87L893.988 1027.63C893.588 1028.07 892.788 1028.43 891.948 1028.43C890.628 1028.43 889.988 1027.39 889.988 1025.95V1013.95H893.908V1011.31H889.988V1006.03H886.988V1011.31H883.788V1013.95H886.988V1026.59C886.988 1029.47 888.428 1031.11 891.268 1031.11ZM906.866 1031.11C910.026 1031.11 912.626 1030.07 914.546 1028.15L913.106 1026.19C911.586 1027.75 909.346 1028.63 907.146 1028.63C902.986 1028.63 900.426 1025.59 900.186 1021.95H915.826V1021.19C915.826 1015.39 912.386 1010.83 906.546 1010.83C901.026 1010.83 897.026 1015.35 897.026 1020.95C897.026 1026.99 901.146 1031.11 906.866 1031.11ZM912.866 1019.75H900.186C900.346 1016.79 902.386 1013.31 906.506 1013.31C910.906 1013.31 912.826 1016.87 912.866 1019.75ZM930.205 1031.11C935.285 1031.11 938.805 1027.19 938.805 1020.95C938.805 1014.67 935.285 1010.83 930.205 1010.83C927.485 1010.83 925.085 1012.23 923.685 1014.19V1011.31H920.685V1037.99H923.685V1027.71C925.245 1029.87 927.565 1031.11 930.205 1031.11ZM929.445 1028.43C927.085 1028.43 924.725 1026.99 923.685 1025.31V1016.59C924.725 1014.91 927.085 1013.51 929.445 1013.51C933.325 1013.51 935.645 1016.67 935.645 1020.95C935.645 1025.23 933.325 1028.43 929.445 1028.43ZM952.296 1031.11C955.456 1031.11 958.056 1030.07 959.976 1028.15L958.536 1026.19C957.016 1027.75 954.776 1028.63 952.576 1028.63C948.416 1028.63 945.856 1025.59 945.616 1021.95H961.256V1021.19C961.256 1015.39 957.816 1010.83 951.976 1010.83C946.456 1010.83 942.456 1015.35 942.456 1020.95C942.456 1026.99 946.576 1031.11 952.296 1031.11ZM958.296 1019.75H945.616C945.776 1016.79 947.816 1013.31 951.936 1013.31C956.336 1013.31 958.256 1016.87 958.296 1019.75ZM983.115 1030.63L974.515 1020.07L983.075 1011.31H979.275L969.115 1021.59V1003.95H966.115V1030.63H969.115V1025.11L972.315 1021.95L979.275 1030.63H983.115ZM988.141 1008.55C989.261 1008.55 990.181 1007.67 990.181 1006.55C990.181 1005.43 989.261 1004.51 988.141 1004.51C987.061 1004.51 986.141 1005.43 986.141 1006.55C986.141 1007.67 987.061 1008.55 988.141 1008.55ZM989.661 1030.63V1011.31H986.661V1030.63H989.661ZM1021.97 1030.63V1016.67C1021.97 1012.79 1020.09 1010.83 1016.57 1010.83C1013.77 1010.83 1011.17 1012.67 1010.09 1014.43C1009.53 1012.43 1007.85 1010.83 1004.89 1010.83C1002.05 1010.83 999.446 1012.87 998.646 1014.11V1011.31H995.646V1030.63H998.646V1016.51C999.686 1014.95 1001.77 1013.51 1003.73 1013.51C1006.25 1013.51 1007.29 1015.07 1007.29 1017.51V1030.63H1010.29V1016.47C1011.29 1014.95 1013.41 1013.51 1015.41 1013.51C1017.89 1013.51 1018.97 1015.07 1018.97 1017.51V1030.63H1021.97ZM1043.03 1030.63V1017.35C1043.03 1012.67 1039.63 1010.83 1035.55 1010.83C1032.39 1010.83 1029.91 1011.87 1027.83 1014.03L1029.23 1016.11C1030.95 1014.27 1032.83 1013.43 1035.15 1013.43C1037.95 1013.43 1040.03 1014.91 1040.03 1017.51V1020.99C1038.47 1019.19 1036.27 1018.35 1033.63 1018.35C1030.35 1018.35 1026.87 1020.39 1026.87 1024.71C1026.87 1028.91 1030.35 1031.11 1033.63 1031.11C1036.23 1031.11 1038.43 1030.19 1040.03 1028.43V1030.63H1043.03ZM1034.71 1028.95C1031.91 1028.95 1029.95 1027.19 1029.95 1024.75C1029.95 1022.27 1031.91 1020.51 1034.71 1020.51C1036.83 1020.51 1038.87 1021.31 1040.03 1022.91V1026.55C1038.87 1028.15 1036.83 1028.95 1034.71 1028.95ZM1052.04 1025.39V1016.63C1053.08 1014.95 1055.44 1013.51 1057.8 1013.51C1061.72 1013.51 1064.04 1016.71 1064.04 1020.99C1064.04 1025.27 1061.72 1028.43 1057.8 1028.43C1055.44 1028.43 1053.08 1027.07 1052.04 1025.39ZM1052.04 1030.63V1027.75C1053.48 1029.71 1055.84 1031.11 1058.56 1031.11C1063.6 1031.11 1067.16 1027.27 1067.16 1020.99C1067.16 1014.83 1063.6 1010.83 1058.56 1010.83C1055.92 1010.83 1053.6 1012.11 1052.04 1014.23V1003.95H1049.04V1030.63H1052.04Z" fill="black"></path>
    <path id="088194297f988cb6e4dda53c7d51f8e7" d="M1223.67 932.633C1231.95 932.633 1237.35 926.913 1237.35 919.313C1237.35 911.753 1231.95 905.953 1223.67 905.953H1214.55V932.633H1223.67ZM1223.67 929.673H1217.87V908.913H1223.67C1230.27 908.913 1233.91 913.553 1233.91 919.313C1233.91 925.033 1230.15 929.673 1223.67 929.673ZM1258.48 932.633V913.313H1255.48V927.513C1254.36 929.073 1252.12 930.433 1249.76 930.433C1247.16 930.433 1245.44 929.433 1245.44 926.033V913.313H1242.44V926.953C1242.44 931.153 1244.56 933.113 1248.6 933.113C1251.48 933.113 1254 931.593 1255.48 929.913V932.633H1258.48ZM1273.99 933.113C1279.07 933.113 1282.59 929.193 1282.59 922.953C1282.59 916.673 1279.07 912.833 1273.99 912.833C1271.27 912.833 1268.87 914.233 1267.47 916.193V913.313H1264.47V939.993H1267.47V929.713C1269.03 931.873 1271.35 933.113 1273.99 933.113ZM1273.23 930.433C1270.87 930.433 1268.51 928.993 1267.47 927.313V918.593C1268.51 916.913 1270.87 915.513 1273.23 915.513C1277.11 915.513 1279.43 918.673 1279.43 922.953C1279.43 927.233 1277.11 930.433 1273.23 930.433ZM1288.84 910.553C1289.96 910.553 1290.88 909.673 1290.88 908.553C1290.88 907.433 1289.96 906.513 1288.84 906.513C1287.76 906.513 1286.84 907.433 1286.84 908.553C1286.84 909.673 1287.76 910.553 1288.84 910.553ZM1290.36 932.633V913.313H1287.36V932.633H1290.36ZM1299.35 932.633V905.953H1296.35V932.633H1299.35ZM1321.37 932.633V913.313H1318.37V927.513C1317.25 929.073 1315.01 930.433 1312.65 930.433C1310.05 930.433 1308.33 929.433 1308.33 926.033V913.313H1305.33V926.953C1305.33 931.153 1307.45 933.113 1311.49 933.113C1314.37 933.113 1316.89 931.593 1318.37 929.913V932.633H1321.37ZM1353.68 932.633V918.673C1353.68 914.793 1351.8 912.833 1348.28 912.833C1345.48 912.833 1342.88 914.673 1341.8 916.433C1341.24 914.433 1339.56 912.833 1336.6 912.833C1333.76 912.833 1331.16 914.873 1330.36 916.113V913.313H1327.36V932.633H1330.36V918.513C1331.4 916.953 1333.48 915.513 1335.44 915.513C1337.96 915.513 1339 917.073 1339 919.513V932.633H1342V918.473C1343 916.953 1345.12 915.513 1347.12 915.513C1349.6 915.513 1350.68 917.073 1350.68 919.513V932.633H1353.68ZM1374.75 932.633V919.353C1374.75 914.673 1371.35 912.833 1367.27 912.833C1364.11 912.833 1361.63 913.873 1359.55 916.033L1360.95 918.113C1362.67 916.273 1364.55 915.433 1366.87 915.433C1369.67 915.433 1371.75 916.913 1371.75 919.513V922.993C1370.19 921.193 1367.99 920.353 1365.35 920.353C1362.07 920.353 1358.59 922.393 1358.59 926.713C1358.59 930.913 1362.07 933.113 1365.35 933.113C1367.95 933.113 1370.15 932.193 1371.75 930.433V932.633H1374.75ZM1366.43 930.953C1363.63 930.953 1361.67 929.193 1361.67 926.753C1361.67 924.273 1363.63 922.513 1366.43 922.513C1368.55 922.513 1370.59 923.313 1371.75 924.913V928.553C1370.59 930.153 1368.55 930.953 1366.43 930.953ZM1383.76 927.393V918.633C1384.8 916.953 1387.16 915.513 1389.52 915.513C1393.44 915.513 1395.76 918.713 1395.76 922.993C1395.76 927.273 1393.44 930.433 1389.52 930.433C1387.16 930.433 1384.8 929.073 1383.76 927.393ZM1383.76 932.633V929.753C1385.2 931.713 1387.56 933.113 1390.28 933.113C1395.32 933.113 1398.88 929.273 1398.88 922.993C1398.88 916.833 1395.32 912.833 1390.28 912.833C1387.64 912.833 1385.32 914.113 1383.76 916.233V905.953H1380.76V932.633H1383.76Z" fill="black"></path>
    <path id="68db7fd224ad96142f2a47f4c8b72c21" d="M1576.69 932.633V922.033H1584.09C1589.37 922.033 1592.45 918.353 1592.45 913.993C1592.45 909.633 1589.45 905.953 1584.09 905.953H1573.37V932.633H1576.69ZM1583.69 919.073H1576.69V908.913H1583.69C1586.85 908.913 1589.01 910.993 1589.01 913.993C1589.01 916.993 1586.85 919.073 1583.69 919.073ZM1599.73 932.633V905.953H1596.73V932.633H1599.73ZM1620.8 932.633V919.353C1620.8 914.673 1617.4 912.833 1613.32 912.833C1610.16 912.833 1607.68 913.873 1605.6 916.033L1607 918.113C1608.72 916.273 1610.6 915.433 1612.92 915.433C1615.72 915.433 1617.8 916.913 1617.8 919.513V922.993C1616.24 921.193 1614.04 920.353 1611.4 920.353C1608.12 920.353 1604.64 922.393 1604.64 926.713C1604.64 930.913 1608.12 933.113 1611.4 933.113C1614 933.113 1616.2 932.193 1617.8 930.433V932.633H1620.8ZM1612.48 930.953C1609.68 930.953 1607.72 929.193 1607.72 926.753C1607.72 924.273 1609.68 922.513 1612.48 922.513C1614.6 922.513 1616.64 923.313 1617.8 924.913V928.553C1616.64 930.153 1614.6 930.953 1612.48 930.953ZM1635.33 933.113C1638.85 933.113 1640.93 931.673 1642.41 929.753L1640.41 927.913C1639.13 929.633 1637.49 930.433 1635.49 930.433C1631.37 930.433 1628.81 927.233 1628.81 922.953C1628.81 918.673 1631.37 915.513 1635.49 915.513C1637.49 915.513 1639.13 916.273 1640.41 918.033L1642.41 916.193C1640.93 914.273 1638.85 912.833 1635.33 912.833C1629.57 912.833 1625.69 917.233 1625.69 922.953C1625.69 928.713 1629.57 933.113 1635.33 933.113ZM1655.33 933.113C1658.49 933.113 1661.09 932.073 1663.01 930.153L1661.57 928.193C1660.05 929.753 1657.81 930.633 1655.61 930.633C1651.45 930.633 1648.89 927.593 1648.65 923.953H1664.29V923.193C1664.29 917.393 1660.85 912.833 1655.01 912.833C1649.49 912.833 1645.49 917.353 1645.49 922.953C1645.49 928.993 1649.61 933.113 1655.33 933.113ZM1661.33 921.753H1648.65C1648.81 918.793 1650.85 915.313 1654.97 915.313C1659.37 915.313 1661.29 918.873 1661.33 921.753ZM1672.15 927.393V918.633C1673.19 916.953 1675.55 915.513 1677.91 915.513C1681.83 915.513 1684.15 918.713 1684.15 922.993C1684.15 927.273 1681.83 930.433 1677.91 930.433C1675.55 930.433 1673.19 929.073 1672.15 927.393ZM1672.15 932.633V929.753C1673.59 931.713 1675.95 933.113 1678.67 933.113C1683.71 933.113 1687.27 929.273 1687.27 922.993C1687.27 916.833 1683.71 912.833 1678.67 912.833C1676.03 912.833 1673.71 914.113 1672.15 916.233V905.953H1669.15V932.633H1672.15ZM1700.6 933.113C1706.48 933.113 1710.16 928.553 1710.16 922.953C1710.16 917.353 1706.48 912.833 1700.6 912.833C1694.72 912.833 1691.04 917.353 1691.04 922.953C1691.04 928.553 1694.72 933.113 1700.6 933.113ZM1700.6 930.433C1696.48 930.433 1694.16 926.913 1694.16 922.953C1694.16 919.033 1696.48 915.513 1700.6 915.513C1704.72 915.513 1707 919.033 1707 922.953C1707 926.913 1704.72 930.433 1700.6 930.433Z" fill="black"></path>
    <g id="f94c306293522cc062fc20c1c337cf44" anim="" anim:scale="0.5|1" anim:delay="0" anim:duration="0.5">
      <rect width="200" height="401" transform="translate(536 468)" fill="#49A2CC"></rect>
      <rect id="6fe07c50efee062590e2e93cf0cbf41e" x="536" y="468" width="200" height="311.992" fill="#49A2CC"></rect>
    </g>
    <rect id="7a2c0ae4abc8b6a411519170aed5baaa" x="1206.43" y="595.791" width="200" height="272.992" fill="#49A2CC"></rect>
    <rect id="80a773525335a697b6545c371b414d3e" x="871.435" y="483.668" width="200" height="385.115" fill="#E20613"></rect>
    <rect id="e1f055cfb8bdb5febdbea121004d9456" x="1541.43" y="251.852" width="200" height="616.931" fill="#E20613"></rect>
  </g>
</svg>